<?xml version="1.0" encoding="utf-8"?>
<!-- Generator: Adobe Illustrator 24.0.2, SVG Export Plug-In . SVG Version: 6.00 Build 0)  -->
<svg version="1.1" id="Image" xmlns="http://www.w3.org/2000/svg" xmlns:xlink="http://www.w3.org/1999/xlink" x="0px" y="0px"
	 viewBox="0 0 94 94" style="enable-background:new 0 0 94 94;" xml:space="preserve">
<polygon id="Hands_1_" points="78.5,48.8 77.6,44 69.7,45.4 76,80.8 76,80.8 84,80.8 84,48.8 "/>
<circle id="_x31_2" cx="80" cy="30" r="6"/>
<circle id="_x31_1" cx="55" cy="36.7" r="6"/>
<circle id="_x31_0" cx="36.7" cy="55" r="6"/>
<circle id="_x39_" cx="30" cy="80" r="6"/>
<path id="Border" d="M16,80c0-35.4,28.6-64,64-64c2,0,4,0.1,6,0.3v-8C84,8.1,82,8,80,8C40.2,8,8,40.2,8,80c0,2,0.1,4,0.3,6h8
	C16.1,84,16,82,16,80z"/>
</svg>
